<?xml version="1.0" encoding="UTF-8"?>
<svg version="1.1" xmlns="http://www.w3.org/2000/svg" width="225" height="225">
<path d="M0 0 C0.66 0 1.32 0 2 0 C1.59801466 5.4937996 -0.27495036 9.06535677 -4 13 C-7.60995047 15.75389957 -10.35551588 17 -15 17 C-15.23783203 17.88751953 -15.23783203 17.88751953 -15.48046875 18.79296875 C-17.54010208 25.76841201 -20.39198314 29.54304292 -26.6875 33.3125 C-30 35 -30 35 -32 35 C-31.83628906 34.13866455 -31.67257813 33.2773291 -31.50390625 32.38989258 C-31.01607924 29.10816871 -30.90093954 26.07526449 -30.9375 22.76171875 C-30.94523437 21.61251953 -30.95296875 20.46332031 -30.9609375 19.27929688 C-30.97382812 18.09400391 -30.98671875 16.90871094 -31 15.6875 C-31.02537239 13.31645048 -31.04645174 10.94534971 -31.0625 8.57421875 C-31.07410156 7.52838623 -31.08570312 6.48255371 -31.09765625 5.4050293 C-31 3 -31 3 -30 2 C-27.86754518 1.85361067 -25.73054663 1.77254188 -23.59375 1.71875 C-22.29308594 1.68136719 -20.99242187 1.64398438 -19.65234375 1.60546875 C-17.57180391 1.55179328 -15.49122618 1.4997806 -13.41064453 1.44775391 C-11.40907629 1.39611581 -9.40765776 1.33877312 -7.40625 1.28125 C-6.20291016 1.25095703 -4.99957031 1.22066406 -3.75976562 1.18945312 C-1.09085813 1.3098644 -1.09085813 1.3098644 0 0 Z " fill="#35B249" transform="translate(152,94)"/>
<path d="M0 0 C5.52236722 0.13805918 8.35480282 2.48095406 12.23046875 6.08984375 C15.34363324 9.45041204 17 12.4109992 17 17 C18.2375 17.0309375 18.2375 17.0309375 19.5 17.0625 C25.63599017 18.7060688 29.71976696 22.9196213 33 28.25 C34 31 34 31 34 34 C33.47438477 33.84152588 32.94876953 33.68305176 32.40722656 33.51977539 C29.41021426 32.87265174 26.54945792 32.78111912 23.484375 32.68359375 C22.23398438 32.64169922 20.98359375 32.59980469 19.6953125 32.55664062 C18.39335937 32.51732422 17.09140625 32.47800781 15.75 32.4375 C14.43257812 32.39431641 13.11515625 32.35113281 11.7578125 32.30664062 C8.50531212 32.20058083 5.25273608 32.09851976 2 32 C0.68687902 29.37375804 0.90359607 27.44888228 0.9375 24.51171875 C0.94523437 23.41279297 0.95296875 22.31386719 0.9609375 21.18164062 C0.98684817 18.86393082 1.01288851 16.54622247 1.0390625 14.22851562 C1.04679687 13.12572266 1.05453125 12.02292969 1.0625 10.88671875 C1.07410156 9.87826904 1.08570312 8.86981934 1.09765625 7.83081055 C1.00366233 5.10616186 0.61674097 2.65059002 0 0 Z " fill="#32A5D9" transform="translate(120,50)"/>
<path d="M0 0 C0.99 0.33 1.98 0.66 3 1 C5.20959253 1.15109093 7.42300047 1.24873801 9.63671875 1.31640625 C10.93544922 1.35830078 12.23417969 1.40019531 13.57226562 1.44335938 C14.94400761 1.48316987 16.31575244 1.52288216 17.6875 1.5625 C19.07097645 1.60570835 20.45444027 1.64932339 21.83789062 1.69335938 C25.22515719 1.79958028 28.61249799 1.90162358 32 2 C32.02505615 2.82201904 32.0501123 3.64403809 32.07592773 4.4909668 C32.19212655 8.22329374 32.31474505 11.95538317 32.4375 15.6875 C32.47681641 16.98107422 32.51613281 18.27464844 32.55664062 19.60742188 C32.59853516 20.85458984 32.64042969 22.10175781 32.68359375 23.38671875 C32.73858032 25.10701294 32.73858032 25.10701294 32.79467773 26.86206055 C32.97840298 29.66993278 33.3699382 32.26225814 34 35 C28.68526759 33.83075887 24.65977735 32.21876351 21 28 C18.71154246 24.37247598 17 21.335038 17 17 C16.13375 16.9175 15.2675 16.835 14.375 16.75 C8.64761014 15.4772467 5.31351171 12.82318532 2.125 8 C0.16598773 4.84586704 0 3.94842358 0 0 Z " fill="#2CA4D9" transform="translate(75,94)"/>
<path d="M0 0 C0.495 1.485 0.495 1.485 1 3 C0.67 3.66 0.34 4.32 0 5 C-0.15441209 7.10374996 -0.24992639 9.21195119 -0.31640625 11.3203125 C-0.37924805 13.20556641 -0.37924805 13.20556641 -0.44335938 15.12890625 C-0.48267578 16.44761719 -0.52199219 17.76632813 -0.5625 19.125 C-0.60569512 20.46485751 -0.64930973 21.80470156 -0.69335938 23.14453125 C-0.79970981 26.42957815 -0.90173808 29.71470281 -1 33 C-1.86278564 33.02505615 -2.72557129 33.0501123 -3.61450195 33.07592773 C-6.81823769 33.17111385 -10.02181537 33.27034444 -13.2253418 33.37231445 C-14.61135983 33.41560218 -15.99742906 33.45728164 -17.38354492 33.49731445 C-19.37691798 33.55516584 -21.37010565 33.61929776 -23.36328125 33.68359375 C-25.16212769 33.73858032 -25.16212769 33.73858032 -26.99731445 33.79467773 C-30.04994349 33.87733025 -30.04994349 33.87733025 -33 35 C-32.60052844 29.54055531 -30.80765394 25.84489261 -27 22 C-23.41172463 19.61481111 -20.34465149 18 -16 18 C-15.84144531 17.40832031 -15.68289062 16.81664063 -15.51953125 16.20703125 C-13.70192432 10.05126857 -11.71181016 6.09737972 -5.8984375 2.8125 C-3.95174846 1.82195858 -1.99587367 0.88650468 0 0 Z " fill="#37AA4C" transform="translate(108,49)"/>
<path d="M0 0 C1.32 0 2.64 0 4 0 C5.65 3.63 7.3 7.26 9 11 C9.33 7.37 9.66 3.74 10 0 C12.8125 -0.25 12.8125 -0.25 16 0 C17.875 2 17.875 2 19 4 C19.66 2.68 20.32 1.36 21 0 C22.98 0 24.96 0 27 0 C27.495 4.95 27.495 4.95 28 10 C29.65 6.7 31.3 3.4 33 0 C35.475 0.495 35.475 0.495 38 1 C39.58203125 3.94140625 39.58203125 3.94140625 40.8125 7.5625 C41.23144531 8.76003906 41.65039062 9.95757812 42.08203125 11.19140625 C42.38496094 12.11824219 42.68789062 13.04507813 43 14 C41.68 14.33 40.36 14.66 39 15 C38.505 13.515 38.505 13.515 38 12 C36.02 12 34.04 12 32 12 C31.67 12.99 31.34 13.98 31 15 C28.36 15 25.72 15 23 15 C23 13.35 23 11.7 23 10 C22.34 10 21.68 10 21 10 C20.34 11.32 19.68 12.64 19 14 C18.01 13.34 17.02 12.68 16 12 C15.01 13.485 15.01 13.485 14 15 C12.0546875 15.29296875 12.0546875 15.29296875 9.875 15.1875 C8.59625 15.125625 7.3175 15.06375 6 15 C5.67 14.01 5.34 13.02 5 12 C3.02 12 1.04 12 -1 12 C-1.33 12.99 -1.66 13.98 -2 15 C-3.32 14.67 -4.64 14.34 -6 14 C-5.19074658 11.85294019 -4.37750887 9.7073817 -3.5625 7.5625 C-3.11003906 6.36753906 -2.65757812 5.17257813 -2.19140625 3.94140625 C-1 1 -1 1 0 0 Z " fill="#1766A7" transform="translate(155,141)"/>
<path d="M0 0 C6.12081553 2.21615735 10.23132773 6.04778256 13.625 11.5625 C14.625 14.3125 14.625 14.3125 14.625 17.3125 C14.09938477 17.15402588 13.57376953 16.99555176 13.03222656 16.83227539 C10.03521426 16.18515174 7.17445792 16.09361912 4.109375 15.99609375 C2.85898438 15.95419922 1.60859375 15.91230469 0.3203125 15.86914062 C-0.98164063 15.82982422 -2.28359375 15.79050781 -3.625 15.75 C-4.94242188 15.70681641 -6.25984375 15.66363281 -7.6171875 15.61914062 C-10.86968788 15.51308083 -14.12226392 15.41101976 -17.375 15.3125 C-17.375 14.6525 -17.375 13.9925 -17.375 13.3125 C-15.8359375 11.796875 -15.8359375 11.796875 -13.75 10.0625 C-11.02434432 7.78233813 -8.63007755 5.50063873 -6.3125 2.8125 C-3.375 0.3125 -3.375 0.3125 0 0 Z " fill="#1C6FB5" transform="translate(139.375,66.6875)"/>
<path d="M0 0 C4.7743885 3.18292567 8.91815581 6.05037145 12 11 C12.8586792 15.68507425 12.74232795 19.54761924 10.5625 23.8125 C6.96374544 26.88460755 1.92021443 31 -3 31 C-2.83371094 30.21753906 -2.66742188 29.43507813 -2.49609375 28.62890625 C-1.74981491 23.16990591 -1.99479357 17.7544978 -2.12695312 12.25585938 C-2.1849019 7.71199403 -2.18631732 4.12399463 0 0 Z " fill="#03A051" transform="translate(123,98)"/>
<path d="M0 0 C0.33 0 0.66 0 1 0 C1.02505615 0.82201904 1.0501123 1.64403809 1.07592773 2.4909668 C1.19212655 6.22329374 1.31474505 9.95538317 1.4375 13.6875 C1.47681641 14.98107422 1.51613281 16.27464844 1.55664062 17.60742188 C1.61948242 19.47817383 1.61948242 19.47817383 1.68359375 21.38671875 C1.72025146 22.53358154 1.75690918 23.68044434 1.79467773 24.86206055 C1.97840298 27.66993278 2.3699382 30.26225814 3 33 C-3.21958858 31.63169051 -7.64461999 29.41219275 -11.33203125 24.0703125 C-14.22133574 18.94880287 -14.22133574 18.94880287 -13.44140625 15.60546875 C-11.60739817 12.29033761 -9.16801393 9.88218981 -6.4375 7.3125 C-2.76944638 4.00909992 -2.76944638 4.00909992 0 0 Z " fill="#1B71B8" transform="translate(106,96)"/>
<path d="M0 0 C4.28716692 0.06153828 4.28716692 0.06153828 6.8125 1.9375 C7.95207847 5.26857552 6.98774639 7.15666626 5.625 10.3125 C6.285 10.9725 6.945 11.6325 7.625 12.3125 C9.275 8.3525 10.925 4.3925 12.625 0.3125 C14.275 0.3125 15.925 0.3125 17.625 0.3125 C18.46766711 2.05802473 19.29880038 3.8091208 20.125 5.5625 C20.5890625 6.53703125 21.053125 7.5115625 21.53125 8.515625 C22.625 11.3125 22.625 11.3125 22.625 15.3125 C21.305 14.9825 19.985 14.6525 18.625 14.3125 C18.625 13.6525 18.625 12.9925 18.625 12.3125 C15.65434491 12.65477572 15.65434491 12.65477572 12.625 13.3125 C12.295 13.9725 11.965 14.6325 11.625 15.3125 C6.25194301 15.66483161 6.25194301 15.66483161 3.625 15.3125 C1.625 13.3125 1.625 13.3125 0.625 11.3125 C-0.035 12.6325 -0.695 13.9525 -1.375 15.3125 C-2.695 14.9825 -4.015 14.6525 -5.375 14.3125 C-5.40185938 12.16673363 -5.42133088 10.02087355 -5.4375 7.875 C-5.44910156 6.68003906 -5.46070312 5.48507813 -5.47265625 4.25390625 C-5.32335171 -0.2431465 -4.11629351 0.12655271 0 0 Z M-0.375 4.3125 C-0.705 4.9725 -1.035 5.6325 -1.375 6.3125 C-0.055 6.3125 1.265 6.3125 2.625 6.3125 C2.625 5.6525 2.625 4.9925 2.625 4.3125 C1.635 4.3125 0.645 4.3125 -0.375 4.3125 Z M14.625 6.3125 C15.625 8.3125 15.625 8.3125 15.625 8.3125 Z " fill="#176BAB" transform="translate(117.375,140.6875)"/>
<path d="M0 0 C0.33 0.99 0.66 1.98 1 3 C0.67 3.66 0.34 4.32 0 5 C-0.66 5 -1.32 5 -2 5 C-2 13.58 -2 22.16 -2 31 C-4 31 -4 31 -6.625 28.625 C-9 26 -9 26 -9 24 C-9.99 23.67 -10.98 23.34 -12 23 C-12.66 22.01 -13.32 21.02 -14 20 C-15.97747122 19.63702064 -15.97747122 19.63702064 -18.125 19.8125 C-19.40375 19.874375 -20.6825 19.93625 -22 20 C-19 18 -19 18 -16 18 C-15.84144531 17.40832031 -15.68289062 16.81664063 -15.51953125 16.20703125 C-13.70192432 10.05126857 -11.71181016 6.09737972 -5.8984375 2.8125 C-3.95174846 1.82195858 -1.99587367 0.88650468 0 0 Z " fill="#0C9E50" transform="translate(108,49)"/>
<path d="M0 0 C5 1 5 1 6.8125 3.0625 C7.204375 3.701875 7.59625 4.34125 8 5 C8.66 3.35 9.32 1.7 10 0 C11.32 0 12.64 0 14 0 C14 4.62 14 9.24 14 14 C12.68 14.33 11.36 14.66 10 15 C8.35 13.02 6.7 11.04 5 9 C4.67 10.98 4.34 12.96 4 15 C2.68 15 1.36 15 0 15 C0 10.05 0 5.1 0 0 Z " fill="#1969A7" transform="translate(58,141)"/>
<path d="M0 0 C1.32 0 2.64 0 4 0 C5.65 3.63 7.3 7.26 9 11 C9.33 7.37 9.66 3.74 10 0 C11.98 0 13.96 0 16 0 C15.67 0.66 15.34 1.32 15 2 C13.68 1.67 12.36 1.34 11 1 C11 5.29 11 9.58 11 14 C9.35 14.33 7.7 14.66 6 15 C5.67 14.01 5.34 13.02 5 12 C3.02 12 1.04 12 -1 12 C-1.33 12.99 -1.66 13.98 -2 15 C-3.32 14.67 -4.64 14.34 -6 14 C-5.19074658 11.85294019 -4.37750887 9.7073817 -3.5625 7.5625 C-3.11003906 6.36753906 -2.65757812 5.17257813 -2.19140625 3.94140625 C-1 1 -1 1 0 0 Z " fill="#1F6599" transform="translate(155,141)"/>
<path d="M0 0 C1.32 0 2.64 0 4 0 C4.33 0.99 4.66 1.98 5 3 C5.391875 2.505 5.78375 2.01 6.1875 1.5 C8.55091715 -0.45593143 10.01435003 -0.24207973 13 0 C12.67 0.99 12.34 1.98 12 3 C11.34 3 10.68 3 10 3 C9.11443256 4.68973726 9.11443256 4.68973726 9 7 C10.26660533 9.04291182 11.59886384 11.04690112 13 13 C13 13.66 13 14.32 13 15 C8.68607774 14.5206753 6.83430453 13.2542015 4 10 C4 11.65 4 13.3 4 15 C2.68 14.67 1.36 14.34 0 14 C0 9.38 0 4.76 0 0 Z " fill="#1D6EAC" transform="translate(80,141)"/>
<path d="M0 0 C1.32 0 2.64 0 4 0 C4.33 0.99 4.66 1.98 5 3 C5.66 2.01 6.32 1.02 7 0 C9.625 -0.1875 9.625 -0.1875 12 0 C11.690625 0.5775 11.38125 1.155 11.0625 1.75 C9.62702436 4.76367213 9.62702436 4.76367213 9 8 C9.95298777 9.36733028 10.95374591 10.70264493 12 12 C12 12.99 12 13.98 12 15 C9.625 14.6875 9.625 14.6875 7 14 C6.34 13.01 5.68 12.02 5 11 C4.34 12.32 3.68 13.64 3 15 C2.01 15 1.02 15 0 15 C-0.19448477 12.87562788 -0.38038289 10.75046809 -0.5625 8.625 C-0.66691406 7.44164062 -0.77132813 6.25828125 -0.87890625 5.0390625 C-1 2 -1 2 0 0 Z " fill="#1D649F" transform="translate(27,141)"/>
<path d="M0 0 C1.423125 -0.061875 2.84625 -0.12375 4.3125 -0.1875 C5.51326172 -0.23970703 5.51326172 -0.23970703 6.73828125 -0.29296875 C9 0 9 0 10.765625 1.35546875 C12 3 12 3 12.4375 5.5 C12 8 12 8 10.25 9.8125 C8 11 8 11 4 11 C4 12.32 4 13.64 4 15 C2.68 14.67 1.36 14.34 0 14 C0 9.38 0 4.76 0 0 Z M4 4 C4 4.99 4 5.98 4 7 C5.32 6.67 6.64 6.34 8 6 C8 5.34 8 4.68 8 4 C6.68 4 5.36 4 4 4 Z " fill="#1969A2" transform="translate(99,141)"/>
<path d="M0 0 C1.05960938 0.00676758 1.05960938 0.00676758 2.140625 0.01367188 C3.88545275 0.02546125 5.630237 0.04339676 7.375 0.0625 C7.705 0.7225 8.035 1.3825 8.375 2.0625 C7.385 2.0625 6.395 2.0625 5.375 2.0625 C4.941875 3.17625 4.941875 3.17625 4.5 4.3125 C3.55197356 6.62989797 2.52654089 8.84167115 1.375 11.0625 C-2.36671065 10.55686343 -4.1821028 9.94956033 -6.625 7.0625 C-7.181875 6.5675 -7.73875 6.0725 -8.3125 5.5625 C-9.625 4.0625 -9.625 4.0625 -9.625 1.0625 C-6.55966836 -0.47016582 -3.35745728 -0.04026471 0 0 Z " fill="#2BA7E0" transform="translate(88.625,97.9375)"/>
<path d="M0 0 C10.89 0 21.78 0 33 0 C33.495 1.485 33.495 1.485 34 3 C22.45 3 10.9 3 -1 3 C-0.67 2.01 -0.34 1.02 0 0 Z " fill="#27AD3F" transform="translate(27,164)"/>
<path d="M0 0 C3.625 0.375 3.625 0.375 7 1 C8.1875 3.75 8.1875 3.75 9 7 C8 9.375 8 9.375 6 11 C2.79301294 11.46768561 0.88988761 11.51670894 -1.9375 9.875 C-3 8 -3 8 -2.8125 4.9375 C-2 2 -2 2 0 0 Z " fill="#359DC6" transform="translate(83,112)"/>
<path d="M0 0 C2.9375 0.8125 2.9375 0.8125 4.9375 3.8125 C4.6133631 7.13490324 4.32973697 8.42026303 1.9375 10.8125 C-1.1929173 11.14552312 -3.24148298 11.28921956 -6 9.6875 C-7.0625 7.8125 -7.0625 7.8125 -6.9375 4.75 C-5.7077917 0.62169358 -4.27894903 -0.26197647 0 0 Z " fill="#2FA2D5" transform="translate(144.0625,55.1875)"/>
<path d="M0 0 C10.89 0 21.78 0 33 0 C33.495 1.485 33.495 1.485 34 3 C22.78 3 11.56 3 0 3 C0 2.01 0 1.02 0 0 Z " fill="#26B240" transform="translate(164,164)"/>
<path d="M0 0 C3.83736322 0.95934081 4.59660228 1.23609263 7 4 C7.33 2.68 7.66 1.36 8 0 C8.99 0 9.98 0 11 0 C11 3.96 11 7.92 11 12 C10.01 12 9.02 12 8 12 C5 8.66666667 5 8.66666667 5 6 C4.34 6 3.68 6 3 6 C3.33 7.65 3.66 9.3 4 11 C2.68 11.33 1.36 11.66 0 12 C0 8.04 0 4.08 0 0 Z " fill="#3F9D55" transform="translate(62,160)"/>
<path d="M0 0 C1.65 0 3.3 0 5 0 C5 3.63 5 7.26 5 11 C6.65 11 8.3 11 10 11 C10 12.32 10 13.64 10 15 C8.52093108 15.02689216 7.04172517 15.04634621 5.5625 15.0625 C4.32693359 15.07990234 4.32693359 15.07990234 3.06640625 15.09765625 C1 15 1 15 0 14 C-0.07271741 11.64686445 -0.08370868 9.29166332 -0.0625 6.9375 C-0.05347656 5.64714844 -0.04445312 4.35679687 -0.03515625 3.02734375 C-0.02355469 2.02832031 -0.01195312 1.02929688 0 0 Z " fill="#246B9B" transform="translate(40,141)"/>
<path d="M0 0 C3.96 0 7.92 0 12 0 C11.67 1.32 11.34 2.64 11 4 C10.01 4 9.02 4 8 4 C8 7.3 8 10.6 8 14 C6.68 14.33 5.36 14.66 4 15 C4 11.37 4 7.74 4 4 C2.68 3.67 1.36 3.34 0 3 C0 2.01 0 1.02 0 0 Z " fill="#286490" transform="translate(139,141)"/>
<path d="M0 0 C0.33 0 0.66 0 1 0 C1 5.61 1 11.22 1 17 C4.465 16.505 4.465 16.505 8 16 C7.79375 15.071875 7.5875 14.14375 7.375 13.1875 C7 10 7 10 9 7 C12 8 12 8 12.9375 9.75 C13 12 13 12 11.625 14.4375 C8.18221729 17.79831169 3.03836023 22 -2 22 C-1.90912109 21.12601563 -1.90912109 21.12601563 -1.81640625 20.234375 C-1.12772567 13.49590043 -0.54522381 6.75149484 0 0 Z " fill="#0B974F" transform="translate(122,107)"/>
<path d="M0 0 C0.99 0 1.98 0 3 0 C3.33 0.66 3.66 1.32 4 2 C4.66 2 5.32 2 6 2 C6 1.34 6 0.68 6 0 C7.32 0.33 8.64 0.66 10 1 C8.515 2.485 8.515 2.485 7 4 C7.309375 4.763125 7.61875 5.52625 7.9375 6.3125 C8.67893593 8.18789677 9.36228217 10.08684652 10 12 C7.13275314 11.42655063 6.1385485 11.1385485 4 9 C3.67 9.99 3.34 10.98 3 12 C2.01 12 1.02 12 0 12 C0 8.04 0 4.08 0 0 Z " fill="#3E9C53" transform="translate(103,160)"/>
<path d="M0 0 C1.32 0 2.64 0 4 0 C4.67354499 1.43429001 5.33859701 2.87257057 6 4.3125 C6.556875 5.51326172 6.556875 5.51326172 7.125 6.73828125 C8 9 8 9 8 12 C7.236875 11.67 6.47375 11.34 5.6875 11 C3.00930865 9.82563314 3.00930865 9.82563314 0 10 C-0.33 10.66 -0.66 11.32 -1 12 C-1.99 12 -2.98 12 -4 12 C-2.66666667 8 -1.33333333 4 0 0 Z " fill="#3AAA52" transform="translate(86,160)"/>
<path d="M0 0 C0.99 0 1.98 0 3 0 C3.67354499 1.43429001 4.33859701 2.87257057 5 4.3125 C5.556875 5.51326172 5.556875 5.51326172 6.125 6.73828125 C7 9 7 9 7 12 C6.01 12 5.02 12 4 12 C4 11.01 4 10.02 4 9 C1.52733235 9.34444881 1.52733235 9.34444881 -1 10 C-1.33 10.66 -1.66 11.32 -2 12 C-2.99 12 -3.98 12 -5 12 C-4.54738642 10.56068883 -4.08767021 9.12361001 -3.625 7.6875 C-3.24214844 6.48673828 -3.24214844 6.48673828 -2.8515625 5.26171875 C-2 3 -2 3 0 0 Z " fill="#36A44A" transform="translate(156,160)"/>
<path d="M0 0 C1.32 0 2.64 0 4 0 C6.09350689 3.4019487 6.17942163 6.05272412 6 10 C4.68 9.67 3.36 9.34 2 9 C2.33 8.34 2.66 7.68 3 7 C2.34 7 1.68 7 1 7 C1 8.32 1 9.64 1 11 C0.01 11 -0.98 11 -2 11 C-3.14947895 7.44706507 -3.0868937 6.20023331 -1.5625 2.6875 C-1.046875 1.800625 -0.53125 0.91375 0 0 Z " fill="#106CB0" transform="translate(155,141)"/>
<path d="M0 0 C0.33 0 0.66 0 1 0 C1.03758423 1.23302856 1.03758423 1.23302856 1.07592773 2.4909668 C1.19212655 6.22329374 1.31474505 9.95538317 1.4375 13.6875 C1.47681641 14.98107422 1.51613281 16.27464844 1.55664062 17.60742188 C1.59853516 18.85458984 1.64042969 20.10175781 1.68359375 21.38671875 C1.72025146 22.53358154 1.75690918 23.68044434 1.79467773 24.86206055 C1.97840298 27.66993278 2.3699382 30.26225814 3 33 C1.68 32.67 0.36 32.34 -1 32 C-2.0430224 25.44608314 -1.97552024 19.24106958 -1.625 12.625 C-1.58117187 11.62855469 -1.53734375 10.63210937 -1.4921875 9.60546875 C-1.13375235 2.2675047 -1.13375235 2.2675047 0 0 Z " fill="#27699A" transform="translate(106,96)"/>
<path d="M0 0 C0.99 0.33 1.98 0.66 3 1 C5.13661258 1.15070797 7.27712124 1.2485966 9.41796875 1.31640625 C10.67158203 1.35830078 11.92519531 1.40019531 13.21679688 1.44335938 C15.18229492 1.50233398 15.18229492 1.50233398 17.1875 1.5625 C18.52279978 1.60570992 19.85808652 1.649325 21.19335938 1.69335938 C24.46213297 1.79956502 27.73098333 1.90160997 31 2 C30.67 2.66 30.34 3.32 30 4 C16.14 3.505 16.14 3.505 2 3 C4.9867333 10.03268602 4.9867333 10.03268602 9 11 C10.1875 13.0625 10.1875 13.0625 11 15 C6.84875051 13.6846126 5.03562068 12.27763216 2.6875 8.625 C2.17574219 7.85414062 1.66398437 7.08328125 1.13671875 6.2890625 C0 4 0 4 0 0 Z " fill="#3B99BD" transform="translate(75,94)"/>
<path d="M0 0 C1.32 0 2.64 0 4 0 C4 4.62 4 9.24 4 14 C2.68 14.33 1.36 14.66 0 15 C-0.95348275 10.23258627 -1.16407956 5.84034716 -1 1 C-0.67 0.67 -0.34 0.34 0 0 Z " fill="#296D9D" transform="translate(52,141)"/>
<path d="M0 0 C1.32 0 2.64 0 4 0 C4 4.95 4 9.9 4 15 C2.68 15 1.36 15 0 15 C-0.19390729 12.68802845 -0.37996367 10.3753971 -0.5625 8.0625 C-0.71912109 6.13083984 -0.71912109 6.13083984 -0.87890625 4.16015625 C-0.91886719 3.11730469 -0.95882812 2.07445312 -1 1 C-0.67 0.67 -0.34 0.34 0 0 Z " fill="#1C6DA7" transform="translate(74,141)"/>
<path d="M0 0 C4.875 3.625 4.875 3.625 6 7 C5.07796291 9.36522558 4.08301035 11.70401807 3 14 C2.01 14 1.02 14 0 14 C-0.19393875 11.85473901 -0.37998676 9.70876323 -0.5625 7.5625 C-0.71912109 5.77005859 -0.71912109 5.77005859 -0.87890625 3.94140625 C-0.91886719 2.97074219 -0.95882813 2.00007812 -1 1 C-0.67 0.67 -0.34 0.34 0 0 Z " fill="#1B68AC" transform="translate(27,142)"/>
<path d="M0 0 C2.97 0 5.94 0 9 0 C9 0.99 9 1.98 9 3 C8.01 3 7.02 3 6 3 C6 5.97 6 8.94 6 12 C5.01 11.67 4.02 11.34 3 11 C3 8.36 3 5.72 3 3 C2.01 3 1.02 3 0 3 C0 2.01 0 1.02 0 0 Z " fill="#398B54" transform="translate(134,160)"/>
<path d="M0 0 C4.32400207 0.02062322 4.32400207 0.02062322 6.6875 2.3125 C6.996875 2.9725 7.30625 3.6325 7.625 4.3125 C6.965 5.6325 6.305 6.9525 5.625 8.3125 C4.965 6.3325 4.305 4.3525 3.625 2.3125 C1.15233235 2.65694881 1.15233235 2.65694881 -1.375 3.3125 C-1.705 3.9725 -2.035 4.6325 -2.375 5.3125 C-3.035 5.3125 -3.695 5.3125 -4.375 5.3125 C-4.045 7.9525 -3.715 10.5925 -3.375 13.3125 C-2.385 12.9825 -1.395 12.6525 -0.375 12.3125 C-0.705 13.3025 -1.035 14.2925 -1.375 15.3125 C-2.695 14.9825 -4.015 14.6525 -5.375 14.3125 C-5.40185938 12.16673363 -5.42133088 10.02087355 -5.4375 7.875 C-5.44910156 6.68003906 -5.46070312 5.48507813 -5.47265625 4.25390625 C-5.32335171 -0.2431465 -4.11629351 0.12655271 0 0 Z " fill="#1E6597" transform="translate(117.375,140.6875)"/>
<path d="M0 0 C0.66 0 1.32 0 2 0 C1.25 5.75 1.25 5.75 -1 8 C-1 6.35 -1 4.7 -1 3 C-10.24 3 -19.48 3 -29 3 C-29 4.65 -29 6.3 -29 8 C-29.66 7.01 -30.32 6.02 -31 5 C-30.67 4.01 -30.34 3.02 -30 2 C-29.12674072 1.97494385 -28.25348145 1.9498877 -27.35375977 1.92407227 C-24.12397448 1.82912291 -20.89435846 1.72987971 -17.66479492 1.62768555 C-16.26510801 1.58428566 -14.86536641 1.54261436 -13.46557617 1.50268555 C-11.45738505 1.44510555 -9.44938851 1.38086 -7.44140625 1.31640625 C-6.23170166 1.27974854 -5.02199707 1.24309082 -3.77563477 1.20532227 C-1.09294544 1.31061734 -1.09294544 1.31061734 0 0 Z " fill="#31914F" transform="translate(152,94)"/>
<path d="M0 0 C1.98 0 3.96 0 6 0 C6.06058594 0.77085937 6.12117187 1.54171875 6.18359375 2.3359375 C6.26738281 3.33882812 6.35117188 4.34171875 6.4375 5.375 C6.51871094 6.37273437 6.59992188 7.37046875 6.68359375 8.3984375 C6.84965626 10.97927613 6.84965626 10.97927613 8 13 C8.99 12.67 9.98 12.34 11 12 C10.67 12.99 10.34 13.98 10 15 C7.36 15 4.72 15 2 15 C2.33 13.02 2.66 11.04 3 9 C3.66 9 4.32 9 5 9 C5 6.36 5 3.72 5 1 C3.35 1 1.7 1 0 1 C0 0.67 0 0.34 0 0 Z " fill="#23689C" transform="translate(176,141)"/>
<path d="M0 0 C1.423125 -0.061875 2.84625 -0.12375 4.3125 -0.1875 C5.51326172 -0.23970703 5.51326172 -0.23970703 6.73828125 -0.29296875 C9 0 9 0 10.78125 1.34375 C12.44546615 3.60537707 12.22189312 5.26331821 12 8 C11.01 8.495 11.01 8.495 10 9 C9.06576355 5.98968256 8.95550089 5.13349732 10 2 C7.03 1.67 4.06 1.34 1 1 C1 4.96 1 8.92 1 13 C1.99 12.67 2.98 12.34 4 12 C4 12.99 4 13.98 4 15 C2.68 14.67 1.36 14.34 0 14 C0 9.38 0 4.76 0 0 Z " fill="#2D6893" transform="translate(99,141)"/>
<path d="M0 0 C1.32 0.66 2.64 1.32 4 2 C2.35 2.33 0.7 2.66 -1 3 C-1.33 3.99 -1.66 4.98 -2 6 C-2.66 6.66 -3.32 7.32 -4 8 C-3.6814823 10.10820797 -3.6814823 10.10820797 -3 12 C-5.64 12 -8.28 12 -11 12 C-7.49102731 7.81576108 -3.91939465 3.80411834 0 0 Z " fill="#1878BE" transform="translate(135,68)"/>
<path d="M0 0 C0.33 2.31 0.66 4.62 1 7 C-1.60582371 7.93065133 -2.64198224 8.14917407 -5.25 7.0625 C-5.8275 6.711875 -6.405 6.36125 -7 6 C-6.6875 4.125 -6.6875 4.125 -6 2 C-3 0 -3 0 0 0 Z " fill="#28A6E3" transform="translate(89,114)"/>
<path d="M0 0 C0.66 0.33 1.32 0.66 2 1 C2.625 3.0625 2.625 3.0625 3 5 C2.01 5.495 2.01 5.495 1 6 C1.99 7.485 1.99 7.485 3 9 C0.36 9.66 -2.28 10.32 -5 11 C-3.55049545 7.2089881 -1.84827434 3.6125362 0 0 Z " fill="#1673BC" transform="translate(189,143)"/>
<path d="M0 0 C0.99 0 1.98 0 3 0 C3.33 1.32 3.66 2.64 4 4 C3.01 4.495 3.01 4.495 2 5 C2 6.32 2 7.64 2 9 C1.01 9 0.02 9 -1 9 C-1 9.66 -1 10.32 -1 11 C-1.99 11.33 -2.98 11.66 -4 12 C-2.66666667 8 -1.33333333 4 0 0 Z " fill="#0E6CB3" transform="translate(131,142)"/>
<path d="M0 0 C2.9375 0.8125 2.9375 0.8125 4.9375 3.8125 C4.5625 6.5 4.5625 6.5 3.9375 8.8125 C3.6075 8.8125 3.2775 8.8125 2.9375 8.8125 C2.9375 6.8325 2.9375 4.8525 2.9375 2.8125 C0.2975 2.8125 -2.3425 2.8125 -5.0625 2.8125 C-5.0625 4.7925 -5.0625 6.7725 -5.0625 8.8125 C-5.7225 8.4825 -6.3825 8.1525 -7.0625 7.8125 C-6.75 4.9375 -6.75 4.9375 -6.0625 1.8125 C-3.0625 -0.1875 -3.0625 -0.1875 0 0 Z " fill="#409BC1" transform="translate(144.0625,55.1875)"/>
<path d="M0 0 C1.75 0.0625 1.75 0.0625 4 1 C6.00840495 3.70049044 8 6.55126733 8 10 C5.625 9.8125 5.625 9.8125 3 9 C1.625 6.625 1.625 6.625 1 4 C1.33 3.01 1.66 2.02 2 1 C1.34 0.67 0.68 0.34 0 0 Z " fill="#1C689D" transform="translate(85,146)"/>
<path d="M0 0 C9.24 0 18.48 0 28 0 C24.25549268 1.87225366 23.14972809 2.24550933 19.234375 2.1953125 C18.34492188 2.18886719 17.45546875 2.18242188 16.5390625 2.17578125 C15.61867187 2.15902344 14.69828125 2.14226562 13.75 2.125 C12.81414062 2.11597656 11.87828125 2.10695313 10.9140625 2.09765625 C8.60911343 2.07413636 6.3046884 2.04126853 4 2 C3.67 2.66 3.34 3.32 3 4 C1 3 1 3 0 0 Z " fill="#2BAA47" transform="translate(123,97)"/>
<path d="M0 0 C0.99 0 1.98 0 3 0 C3 3.96 3 7.92 3 12 C2.01 12 1.02 12 0 12 C0 8.04 0 4.08 0 0 Z " fill="#379055" transform="translate(122,160)"/>
<path d="M0 0 C0.93423645 3.01031744 1.04449911 3.86650268 0 7 C0.66 7.33 1.32 7.66 2 8 C1.67 8.66 1.34 9.32 1 10 C-1.64 10 -4.28 10 -7 10 C-7.33 9.34 -7.66 8.68 -8 8 C-7.34 8 -6.68 8 -6 8 C-5.67 7.01 -5.34 6.02 -5 5 C-4.34 5.66 -3.68 6.32 -3 7 C-2.01 4.69 -1.02 2.38 0 0 Z " fill="#206997" transform="translate(128,146)"/>
<path d="M0 0 C0.99 0 1.98 0 3 0 C3 3.63 3 7.26 3 11 C2.01 11.33 1.02 11.66 0 12 C0 8.04 0 4.08 0 0 Z " fill="#146EB4" transform="translate(41,142)"/>
<path d="M0 0 C1.65 0.33 3.3 0.66 5 1 C5.33 2.65 5.66 4.3 6 6 C4.35 5.01 2.7 4.02 1 3 C-0.32 5.64 -1.64 8.28 -3 11 C-3.66 10.67 -4.32 10.34 -5 10 C-3.35 6.7 -1.7 3.4 0 0 Z " fill="#1A5E94" transform="translate(188,141)"/>
<path d="M0 0 C2 0 2 0 4.625 2.5625 C7.38921814 5.95900264 7.43535798 8.64642017 7 13 C6.01 13.495 6.01 13.495 5 14 C5 13.34 5 12.68 5 12 C4.34 11.34 3.68 10.68 3 10 C2.875 6.875 2.875 6.875 3 4 C2.34 4 1.68 4 1 4 C0.67 2.68 0.34 1.36 0 0 Z " fill="#09A349" transform="translate(128,103)"/>
<path d="M0 0 C1.4540625 0.0309375 1.4540625 0.0309375 2.9375 0.0625 C2.9375 0.7225 2.9375 1.3825 2.9375 2.0625 C1.9475 2.0625 0.9575 2.0625 -0.0625 2.0625 C-0.0625 5.3625 -0.0625 8.6625 -0.0625 12.0625 C-0.7225 12.0625 -1.3825 12.0625 -2.0625 12.0625 C-2.0625 8.7625 -2.0625 5.4625 -2.0625 2.0625 C-2.7225 1.7325 -3.3825 1.4025 -4.0625 1.0625 C-3.0625 0.0625 -3.0625 0.0625 0 0 Z " fill="#106AAF" transform="translate(146.0625,141.9375)"/>
<path d="M0 0 C0.99 0.33 1.98 0.66 3 1 C2.67 2.32 2.34 3.64 2 5 C2.99 5.33 3.98 5.66 5 6 C3.625 8.5 3.625 8.5 2 11 C1.34 11 0.68 11 0 11 C0 7.37 0 3.74 0 0 Z " fill="#0D69B2" transform="translate(100,143)"/>
<path d="M0 0 C0.33 0 0.66 0 1 0 C1.33 6.6 1.66 13.2 2 20 C1.34 20 0.68 20 0 20 C0 20.66 0 21.32 0 22 C-0.66 22 -1.32 22 -2 22 C-1.90912109 21.12601563 -1.90912109 21.12601563 -1.81640625 20.234375 C-1.12772567 13.49590043 -0.54522381 6.75149484 0 0 Z " fill="#1E8C59" transform="translate(122,107)"/>
<path d="M0 0 C4.7517398 0.43197635 6.92000054 1.32769295 10 5 C7.03 5 4.06 5 1 5 C0.67 3.35 0.34 1.7 0 0 Z " fill="#349CC7" transform="translate(120,50)"/>
<path d="M0 0 C0.66 0 1.32 0 2 0 C1.67 3.3 1.34 6.6 1 10 C0.01 10 -0.98 10 -2 10 C-2.33 9.01 -2.66 8.02 -3 7 C-2.34 7 -1.68 7 -1 7 C-0.67 6.01 -0.34 5.02 0 4 C-0.99 4 -1.98 4 -3 4 C-3 4.66 -3 5.32 -3 6 C-3.66 6 -4.32 6 -5 6 C-5 5.01 -5 4.02 -5 3 C-3.35 3 -1.7 3 0 3 C0 2.01 0 1.02 0 0 Z " fill="#1066A4" transform="translate(121,144)"/>
<path d="M0 0 C4.35883937 3.2933453 6.95639299 5.77744875 9 11 C9 11.99 9 12.98 9 14 C8.01 13.67 7.02 13.34 6 13 C5.62243192 11.67851173 5.2981424 10.34164079 5 9 C4.03114628 7.31503702 3.03013277 5.64821244 2 4 C1.31903578 2.67391178 0.64669414 1.34313399 0 0 Z " fill="#226994" transform="translate(145,70)"/>
<path d="M0 0 C-0.33 0.66 -0.66 1.32 -1 2 C-1.99 2 -2.98 2 -4 2 C-4 4.31 -4 6.62 -4 9 C-4.66 8.67 -5.32 8.34 -6 8 C-6 5.36 -6 2.72 -6 0 C-3.50907189 -1.24546405 -2.58919267 -0.7767578 0 0 Z " fill="#2E9E4F" transform="translate(144,161)"/>
<path d="M0 0 C0.66 0 1.32 0 2 0 C2.0270043 1.45823212 2.04639787 2.91660675 2.0625 4.375 C2.07410156 5.18710938 2.08570313 5.99921875 2.09765625 6.8359375 C2 9 2 9 1 11 C0.34 11 -0.32 11 -1 11 C-1.33 9.68 -1.66 8.36 -2 7 C-1.34 7 -0.68 7 0 7 C0 4.69 0 2.38 0 0 Z " fill="#166BB9" transform="translate(53,143)"/>
<path d="M0 0 C1.32 1.32 2.64 2.64 4 4 C0.39042389 7.2910841 -2.12637153 8.54663921 -7 9 C-5 7 -5 7 -2.9375 6.1875 C-0.71610925 5.12640104 -0.71610925 5.12640104 -0.25 2.375 C-0.1675 1.59125 -0.085 0.8075 0 0 Z " fill="#41A553" transform="translate(144,102)"/>
<path d="M0 0 C1.32 0 2.64 0 4 0 C4.66 2.31 5.32 4.62 6 7 C3.5625 6.3125 3.5625 6.3125 1 5 C0.1875 2.375 0.1875 2.375 0 0 Z " fill="#35AC4E" transform="translate(86,160)"/>
<path d="M0 0 C0.99 0.33 1.98 0.66 3 1 C3 2.98 3 4.96 3 7 C2.34 7 1.68 7 1 7 C0.67 7.66 0.34 8.32 0 9 C-1.125 3.375 -1.125 3.375 0 0 Z " fill="#1873BF" transform="translate(178,143)"/>
<path d="M0 0 C1.32 0 2.64 0 4 0 C4.66 1.98 5.32 3.96 6 6 C3.625 5.75 3.625 5.75 1 5 C-0.3125 2.9375 -0.3125 2.9375 -1 1 C-0.67 0.67 -0.34 0.34 0 0 Z " fill="#1E68A0" transform="translate(155,141)"/>
<path d="M0 0 C2.30142435 1.78174788 3.80034391 3.16304165 4.48828125 6.046875 C4.72323102 8.0246611 4.86751458 10.01271872 5 12 C2.5 9.9375 2.5 9.9375 0 7 C-0.3125 3.1875 -0.3125 3.1875 0 0 Z " fill="#21679F" transform="translate(62,142)"/>
<path d="M0 0 C1.65 0 3.3 0 5 0 C5.66 2.31 6.32 4.62 7 7 C6.34 7 5.68 7 5 7 C4.34 7.66 3.68 8.32 3 9 C3.33 6.36 3.66 3.72 4 1 C3.01 1 2.02 1 1 1 C0.67 2.32 0.34 3.64 0 5 C-0.33 4.34 -0.66 3.68 -1 3 C-0.67 2.01 -0.34 1.02 0 0 Z " fill="#1F6398" transform="translate(130,141)"/>
<path d="M0 0 C0.66 0 1.32 0 2 0 C2.33 0.99 2.66 1.98 3 3 C2.34 3 1.68 3 1 3 C0.67 4.98 0.34 6.96 0 9 C-0.99 9 -1.98 9 -3 9 C-2.01 6.03 -1.02 3.06 0 0 Z " fill="#419C51" transform="translate(85,163)"/>
<path d="M0 0 C2.31 0.33 4.62 0.66 7 1 C7.33 3.31 7.66 5.62 8 8 C7.01 8.495 7.01 8.495 6 9 C5.06576355 5.98968256 4.95550089 5.13349732 6 2 C3.03 1.505 3.03 1.505 0 1 C0 0.67 0 0.34 0 0 Z " fill="#1D6192" transform="translate(103,141)"/>
<path d="M0 0 C1.98 0.66 3.96 1.32 6 2 C6 2.66 6 3.32 6 4 C6.66 4 7.32 4 8 4 C8.33 5.65 8.66 7.3 9 9 C6.95880212 7.38405168 4.95927063 5.7143618 3 4 C3 3.34 3 2.68 3 2 C2.01 1.67 1.02 1.34 0 1 C0 0.67 0 0.34 0 0 Z " fill="#12A648" transform="translate(96,71)"/>
<path d="M0 0 C0.33 0.99 0.66 1.98 1 3 C2.98 3 4.96 3 7 3 C7 3.33 7 3.66 7 4 C6.195625 4.12375 5.39125 4.2475 4.5625 4.375 C3.2940625 4.684375 3.2940625 4.684375 2 5 C1.67 5.66 1.34 6.32 1 7 C0.01 7 -0.98 7 -2 7 C-1.34 4.69 -0.68 2.38 0 0 Z " fill="#429353" transform="translate(153,165)"/>
<path d="M0 0 C-0.33 0.99 -0.66 1.98 -1 3 C-2.32 2.34 -3.64 1.68 -5 1 C-5.33 1.99 -5.66 2.98 -6 4 C-6.66 2.68 -7.32 1.36 -8 0 C-5.13822943 -1.43088528 -3.06624227 -0.59991697 0 0 Z " fill="#25A4DC" transform="translate(147,58)"/>
<path d="M0 0 C-0.75 5.75 -0.75 5.75 -3 8 C-3 6.35 -3 4.7 -3 3 C-4.32 2.67 -5.64 2.34 -7 2 C-2.25 0 -2.25 0 0 0 Z " fill="#4F9957" transform="translate(154,94)"/>
<path d="M0 0 C0 1.65 0 3.3 0 5 C-1.32 5 -2.64 5 -4 5 C-4.33 3.68 -4.66 2.36 -5 1 C-2 0 -2 0 0 0 Z " fill="#1471B7" transform="translate(71,149)"/>
<path d="M0 0 C-2.8125 2.0625 -2.8125 2.0625 -6 4 C-6.99 3.67 -7.98 3.34 -9 3 C-8.67 2.01 -8.34 1.02 -8 0 C-4.71303767 -0.79953138 -3.28976808 -1.09658936 0 0 Z " fill="#0F834C" transform="translate(131,124)"/>
<path d="M0 0 C0.66 0 1.32 0 2 0 C1.67 2.31 1.34 4.62 1 7 C0.34 7 -0.32 7 -1 7 C-1.625 5.1875 -1.625 5.1875 -2 3 C-1.34 2.01 -0.68 1.02 0 0 Z " fill="#3CAA4C" transform="translate(149,98)"/>
<path d="M0 0 C0.99 0 1.98 0 3 0 C2.67 1.65 2.34 3.3 2 5 C0.68 5 -0.64 5 -2 5 C-1.34 3.35 -0.68 1.7 0 0 Z " fill="#369C55" transform="translate(156,160)"/>
<path d="M0 0 C1.98 0.66 3.96 1.32 6 2 C6 2.33 6 2.66 6 3 C3.36 3.66 0.72 4.32 -2 5 C-1.34 3.35 -0.68 1.7 0 0 Z " fill="#136CAE" transform="translate(186,149)"/>
<path d="M0 0 C0.78375 0.04125 1.5675 0.0825 2.375 0.125 C2.045 1.115 1.715 2.105 1.375 3.125 C0.715 3.125 0.055 3.125 -0.625 3.125 C-0.955 3.785 -1.285 4.445 -1.625 5.125 C-1.625 4.465 -1.625 3.805 -1.625 3.125 C-2.615 2.795 -3.605 2.465 -4.625 2.125 C-2.625 0.125 -2.625 0.125 0 0 Z " fill="#205F9B" transform="translate(90.625,140.875)"/>
<path d="M0 0 C0.99 0.33 1.98 0.66 3 1 C3.625 3.375 3.625 3.375 4 6 C3.34 6.66 2.68 7.32 2 8 C0.23537317 4.91190305 0 3.76687864 0 0 Z " fill="#3290C4" transform="translate(88,113)"/>
<path d="M0 0 C0.99 0.33 1.98 0.66 3 1 C3.33 2.65 3.66 4.3 4 6 C3.01 6.495 3.01 6.495 2 7 C1.34 6.67 0.68 6.34 0 6 C0 4.02 0 2.04 0 0 Z " fill="#1678BE" transform="translate(167,143)"/>
<path d="M0 0 C0.33 0.99 0.66 1.98 1 3 C-1.60582371 3.93065133 -2.64198224 4.14917407 -5.25 3.0625 C-5.8275 2.711875 -6.405 2.36125 -7 2 C-4.35261084 0.5393715 -3.10551666 0 0 0 Z " fill="#2BA8D7" transform="translate(89,118)"/>
</svg>
